<svg xmlns="http://www.w3.org/2000/svg" version="1.1" xmlns:xlink="http://www.w3.org/1999/xlink" xmlns:svgjs="http://svgjs.dev/svgjs" width="1000" height="482" viewBox="0 0 1000 482"><g transform="matrix(1,0,0,1,-0.6060606060606233,-0.2515908401385616)"><svg viewBox="0 0 396 191" data-background-color="#171717" preserveAspectRatio="xMidYMid meet" height="482" width="1000" xmlns="http://www.w3.org/2000/svg" xmlns:xlink="http://www.w3.org/1999/xlink"><defs></defs><g id="tight-bounds" transform="matrix(1,0,0,1,0.2400000000000091,0.09969678520013758)"><svg viewBox="0 0 395.52 190.80060642959972" height="190.80060642959972" width="395.52"><g><svg viewBox="0 0 395.52 190.80060642959972" height="190.80060642959972" width="395.52"><g transform="matrix(1,0,0,1,0,117.92242931419142)"><svg viewBox="0 0 395.52 72.8781771154083" height="72.8781771154083" width="395.52"><g><svg viewBox="0 0 395.52 72.8781771154083" height="72.8781771154083" width="395.52"><g><svg viewBox="0 0 395.52 72.8781771154083" height="72.8781771154083" width="395.52"><g transform="matrix(1,0,0,1,0,0)"><svg width="395.52" viewBox="1.12 -36.04 198.21 36.53" height="72.8781771154083" data-palette-color="#ffffff"><path d="M18.12-10.72L18.12-35.55 24.41-35.55 24.41-10.72Q24.41-7.18 22.9-4.68 21.39-2.17 18.75-0.84 16.11 0.49 12.77 0.49L12.77 0.49Q9.38 0.49 6.75-0.67 4.13-1.83 2.62-4.21 1.12-6.59 1.12-10.23L1.12-10.23 7.42-10.23Q7.42-7.18 8.9-5.87 10.38-4.57 12.77-4.57L12.77-4.57Q14.36-4.57 15.55-5.29 16.75-6.01 17.43-7.37 18.12-8.74 18.12-10.72L18.12-10.72ZM45.33-30.49L34.79 0 28.17 0 41.55-35.55 45.75-35.55 45.33-30.49ZM54.07 0L43.5-30.49 43.04-35.55 47.26-35.55 60.69 0 54.07 0ZM53.66-13.21L53.66-8.13 34.3-8.13 34.3-13.21 53.66-13.21ZM92.01-18.29L92.01-4.57Q91.23-3.59 89.64-2.4 88.06-1.22 85.41-0.37 82.76 0.49 78.83 0.49L78.83 0.49Q74.34 0.49 70.91-1.51 67.48-3.52 65.55-7.35 63.62-11.18 63.62-16.58L63.62-16.58 63.62-18.97Q63.62-24.39 65.4-28.21 67.18-32.03 70.47-34.03 73.75-36.04 78.29-36.04L78.29-36.04Q82.69-36.04 85.58-34.57 88.47-33.11 90.03-30.53 91.6-27.95 91.99-24.61L91.99-24.61 85.81-24.61Q85.54-26.46 84.71-27.89 83.88-29.32 82.34-30.15 80.81-30.98 78.41-30.98L78.41-30.98Q75.61-30.98 73.73-29.58 71.85-28.17 70.92-25.5 69.99-22.83 69.99-19.02L69.99-19.02 69.99-16.58Q69.99-12.72 71.08-10.05 72.16-7.37 74.19-5.97 76.22-4.57 79.07-4.57L79.07-4.57Q81.12-4.57 82.44-4.91 83.76-5.25 84.53-5.74 85.3-6.23 85.71-6.67L85.71-6.67 85.71-13.55 78.44-13.55 78.44-18.29 92.01-18.29ZM121.99-5.05L121.99 0 103.22 0 103.22-5.05 121.99-5.05ZM104.97-35.55L104.97 0 98.67 0 98.67-35.55 104.97-35.55ZM119.52-20.8L119.52-15.82 103.22-15.82 103.22-20.8 119.52-20.8ZM121.87-35.55L121.87-30.47 103.22-30.47 103.22-35.55 121.87-35.55ZM142.18-35.55L142.18 0 135.93 0 135.93-35.55 142.18-35.55ZM153.26-35.55L153.26-30.47 124.94-30.47 124.94-35.55 153.26-35.55ZM164.59-35.55L164.59 0 158.31 0 158.31-35.55 164.59-35.55ZM193.03-11.62L199.33-11.62Q199.03-8.13 197.36-5.38 195.69-2.64 192.69-1.07 189.68 0.49 185.34 0.49L185.34 0.49Q180.94 0.49 177.71-1.57 174.47-3.64 172.73-7.42 170.98-11.21 170.98-16.36L170.98-16.36 170.98-19.17Q170.98-24.34 172.76-28.11 174.55-31.88 177.83-33.96 181.11-36.04 185.58-36.04L185.58-36.04Q189.85-36.04 192.8-34.46 195.74-32.89 197.36-30.11 198.98-27.34 199.33-23.75L199.33-23.75 193.05-23.75Q192.69-27.15 191.04-29.03 189.39-30.91 185.58-30.91L185.58-30.91Q182.82-30.91 181-29.55 179.18-28.2 178.26-25.6 177.33-23 177.33-19.21L177.33-19.21 177.33-16.36Q177.33-12.74 178.16-10.12 178.99-7.5 180.75-6.07 182.5-4.64 185.34-4.64L185.34-4.64Q187.92-4.64 189.52-5.44 191.12-6.25 191.95-7.8 192.78-9.35 193.03-11.62L193.03-11.62Z" opacity="1" transform="matrix(1,0,0,1,0,0)" fill="#ffffff" class="undefined-text-0" data-fill-palette-color="primary" id="text-0"></path></svg></g></svg></g></svg></g></svg></g><g transform="matrix(1,0,0,1,139.40117961325285,0)"><svg viewBox="0 0 116.71764077349428 100.71764077349428" height="100.71764077349428" width="116.71764077349428"><g><svg xmlns="http://www.w3.org/2000/svg" xmlns:xlink="http://www.w3.org/1999/xlink" version="1.1" x="8" y="0" viewBox="7.55 7.55 84.89999999999999 84.89999999999999" enable-background="new 0 0 100 100" xml:space="preserve" height="100.71764077349428" width="100.71764077349428" class="icon-icon-0" data-fill-palette-color="accent" id="icon-0"><g fill="#ff0080" data-fill-palette-color="accent"><path fill="none" d="M85.262 40.783l-3.75-3.75H62.023l-5.74 9.943H43.717l-6.281-10.88 6.281-10.881h12.566l5.74 9.944h17.615L59.217 14.738c-2.463-2.462-5.734-3.817-9.217-3.817-3.482 0-6.755 1.355-9.217 3.817L14.739 40.783C12.277 43.245 10.92 46.517 10.92 50c0 3.483 1.356 6.754 3.818 9.217l4.123 4.123h19.115l5.74-9.943h12.566l6.281 10.881-6.281 10.881H43.717l-5.74-9.945H20.735l20.048 20.049c2.462 2.461 5.734 3.818 9.217 3.818 3.481 0 6.754-1.357 9.217-3.818l26.045-26.045C87.723 56.754 89.08 53.48 89.08 50 89.08 46.517 87.723 43.245 85.262 40.783zM71.844 58.32h-9.607l-4.182-7.242H41.946l-4.182 7.242h-9.607L23.353 50l4.804-8.32h9.607l4.182 7.243h16.109l4.182-7.243h9.607L76.646 50 71.844 58.32z"></path><polygon fill="none" points="54.336,71.787 58.672,64.277 54.336,56.768 45.664,56.768 41.328,64.277 45.664,71.787  "></polygon><polygon fill="none" points="45.664,28.586 41.328,36.096 45.664,43.606 54.336,43.606 58.672,36.096 54.336,28.586  "></polygon><path d="M87.645 38.4L61.6 12.355C58.5 9.256 54.383 7.55 50 7.55c-4.382 0-8.502 1.706-11.6 4.805L12.356 38.4C9.256 41.498 7.55 45.618 7.55 50c0 4.383 1.706 8.5 4.806 11.6L38.4 87.645c3.097 3.098 7.218 4.805 11.6 4.805 4.383 0 8.502-1.707 11.6-4.805L87.645 61.6c3.098-3.098 4.805-7.217 4.805-11.6C92.449 45.618 90.742 41.497 87.645 38.4zM85.262 59.217L59.217 85.262C56.754 87.723 53.48 89.08 50 89.08c-3.482 0-6.755-1.357-9.217-3.818L20.735 65.213h17.242l5.74 9.945h12.566l6.281-10.881-6.281-10.881H43.717l-5.74 9.943H18.862l-4.123-4.123C12.277 56.754 10.92 53.482 10.92 50c0-3.482 1.356-6.755 3.818-9.217l26.044-26.044c2.462-2.462 5.734-3.817 9.217-3.817 3.483 0 6.754 1.355 9.217 3.817L79.639 35.16H62.023l-5.74-9.944H43.717l-6.281 10.881 6.281 10.88h12.566l5.74-9.943h19.488l3.75 3.75c2.461 2.462 3.818 5.734 3.818 9.217C89.08 53.48 87.723 56.754 85.262 59.217zM41.328 64.277l4.336-7.51h8.672l4.336 7.51-4.336 7.51h-8.672L41.328 64.277zM58.672 36.096l-4.336 7.51h-8.672l-4.336-7.51 4.336-7.51h8.672L58.672 36.096z" fill="#ff0080" data-fill-palette-color="accent"></path><polygon points="62.236,41.679 58.055,48.922 41.946,48.922 37.764,41.679 28.157,41.679 23.353,50 28.157,58.32 37.764,58.32    41.946,51.078 58.055,51.078 62.236,58.32 71.844,58.32 76.646,50 71.844,41.679  " fill="#ff0080" data-fill-palette-color="accent"></polygon></g></svg></g></svg></g><g><rect width="139.40117961325285" height="6.572229222546304" y="93.14541155094798" x="256.11882038674713" fill="#ff0080" data-fill-palette-color="accent"></rect><rect width="139.40117961325285" height="6.572229222546304" y="93.14541155094798" x="0" fill="#ff0080" data-fill-palette-color="accent"></rect><rect width="139.40117961325285" height="6.572229222546304" y="80.00095310585537" x="256.11882038674713" fill="#ff0080" data-fill-palette-color="accent"></rect><rect width="139.40117961325285" height="6.572229222546304" y="80.00095310585537" x="0" fill="#ff0080" data-fill-palette-color="accent"></rect></g></svg></g></svg><rect width="395.52" height="190.80060642959972" fill="none" stroke="none" visibility="hidden"></rect></g></svg></g></svg>